<?xml version="1.0" encoding="UTF-8"?>
<svg id="Layer_1" data-name="Layer 1" xmlns="http://www.w3.org/2000/svg" viewBox="0 0 509 509">
  <defs>
    <style>
      .cls-1 {
        fill: #474e55;
      }

      .cls-1, .cls-2, .cls-3 {
        stroke-miterlimit: 10;
      }

      .cls-1, .cls-3 {
        stroke: #343a40;
        stroke-width: 9px;
      }

      .cls-2 {
        fill: #b08968;
        stroke: #7f5639;
        stroke-width: .5px;
      }

      .cls-3 {
        fill: none;
      }
    </style>
  </defs>
  <path class="cls-1" d="M504.5,254.5c0,138.04-111.96,250-250,250-107.14,0-198.39-67.32-234.11-161.96-10.36-27.32-15.89-57.14-15.89-88.04,0-138.04,111.96-250,250-250s250,111.96,250,250Z"/>
  <path class="cls-3" d="M56.82,408.61l81.43-81.43c64.11,0,124.82-2.14,187.5,11.25"/>
  <path class="cls-3" d="M477.71,374.68l-121.61-129.29c-15.36-16.43-30.89-32.86-43.57-51.61"/>
  <path class="cls-3" d="M355.39,85.04c-11.25,40-35.18,75.54-45.36,115.71-32.14-5.54-67.5-.54-99.82-4.11"/>
  <path class="cls-3" d="M79.32,83.07c57.5,12.5,114.29,28.75,169.64,48.57"/>
  <path class="cls-3" d="M4.68,239.5c28.04-12.68,56.43-24.11,85.54-34.46,8.93-3.21,29.64-14.46,37.68-9.29,5.36,3.39,10.54,13.93,14.46,19.11l14.46,19.11c3.93,5.18,7.86,10.36,13.57,13.39"/>
  <circle class="cls-2" cx="254.5" cy="254.5" r="35.71"/>
</svg>