<?xml version="1.0" encoding="UTF-8"?>
<svg id="Layer_1" data-name="Layer 1" xmlns="http://www.w3.org/2000/svg" viewBox="0 0 509 509">
  <defs>
    <style>
      .cls-1 {
        fill: #474e55;
        stroke-width: 9px;
      }

      .cls-1, .cls-2, .cls-3 {
        stroke-miterlimit: 10;
      }

      .cls-1, .cls-3 {
        stroke: #343a40;
      }

      .cls-2 {
        fill: #b08968;
        stroke: #7f5639;
        stroke-width: .5px;
      }

      .cls-3 {
        fill: none;
        stroke-width: 10px;
      }
    </style>
  </defs>
  <path class="cls-1" d="M504.5,254.5c0,138.04-111.96,250-250,250-107.14,0-198.39-67.32-234.11-161.96-10.36-27.32-15.89-57.14-15.89-88.04,0-138.04,111.96-250,250-250s250,111.96,250,250Z"/>
  <circle class="cls-2" cx="254.5" cy="254.5" r="35.71"/>
  <path class="cls-3" d="M14,328l49.89-52.52c5.2-5.47,10.22-11.12,15.59-16.41,7.97-7.84,10.91-5.84,17.84,1.64,10.57,11.12,21.13,22.25,31.7,33.37l17.67,18.6,7.45-8.94"/>
  <line class="cls-3" x1="379.68" y1="469.14" x2="379.68" y2="332"/>
  <path class="cls-3" d="M376.11,337.54c9.29-16.25,18.75-32.86,32.86-45.18,3.75-3.21,7.86-6.25,11.25-10,7.5-8.21,10.89-19.64,18.75-27.68"/>
  <path class="cls-3" d="M382.36,339.5c-4.64-15.36-19.64-24.64-28.93-37.68-8.75-12.32-12.32-27.5-14.29-42.5"/>
  <path class="cls-3" d="M119.32,47.71l83.75,83.75c9.64,0,23.93,2.86,31.61-2.5s14.11-14.11,20.71-20.71"/>
  <path class="cls-3" d="M247.89,502.89l-58.93-58.93,37.86-37.86c6.79-6.79,20.71-16.25,23.57-25.54s0-22.68,0-32.32"/>
  <path class="cls-3" d="M483.79,167.71h-158.75c.89-10.54-.89-23.04,5.89-31.25,6.96-8.21,18.21-11.43,25.89-18.93"/>
</svg>